<?xml version="1.0" encoding="UTF-8" standalone="no"?><svg   xmlns:svg="http://www.w3.org/2000/svg"   xmlns="http://www.w3.org/2000/svg"   version="1.1"   width="896"   height="1232"   viewBox="0 0 896 1232">  <path     d="M728 294Q728 277 715.5 264.5T686 252T656.5 264.5T644 294T656.5 323.5T686 336T715.5 323.5T728 294zM448 406Q541 406 606.5 471.5T672 630T606.5 788.5T448 854T289.5 788.5T224 630T289.5 471.5T448 406zM448 826Q529 826 586.5 768.5T644 630T586.5 491.5T448 434T309.5 491.5T252 630T309.5 768.5T448 826zM840 140Q863 140 879.5 156.5T896 196V784Q896 807 879.5 823.5T840 840H689Q645 891 582 920.5T448 950T314 920.5T207 840H56Q33 840 16.5 823.5T0 784V196Q0 173 16.5 156.5T56 140H222L261 81Q278 56 308 56H588Q618 56 635 81L674 140H840zM448 908Q563 908 644.5 826.5T726 630T644.5 433.5T448 352T251.5 433.5T170 630Q170 746 251 827T448 908zM840 784V196H644L588 112H308L252 196H56V784H167Q128 712 128 630Q128 497 221.5 403.5T448 310T674.5 403.5T768 630Q768 712 729 784H840z"     id="icon413" /></svg>