<?xml version="1.0" encoding="UTF-8" standalone="no"?><svg   xmlns:svg="http://www.w3.org/2000/svg"   xmlns="http://www.w3.org/2000/svg"   version="1.1"   width="896"   height="1232"   viewBox="0 0 896 1232">  <path     d="M210 432Q232 432 247 447T262 484T247 521.5T210 537T173 521.5T158 484T173 447T210 432zM210 560Q241 560 260.5 580T280 630V700H140V630Q140 600 159.5 580T210 560zM420 476H756V504H420V476zM420 560H756V588H420V560zM420 644H756V672H420V644zM868 315Q896 331 896 364V896Q896 919 879.5 935.5T840 952H56Q33 952 16.5 935.5T0 896V364Q0 331 28 315V224Q28 191 56 175V112Q56 89 72.5 72.5T112 56H784Q807 56 823.5 72.5T840 112V168Q852 175 860 191.5T868 224V315zM112 112V196H784V112H112zM84 224V336H812V224H84zM840 896V364H56V896H280V812H224V784H364V812H308V896H588V812H532V784H672V812H616V896H840z"     id="icon389" /></svg>