<svg xmlns="http://www.w3.org/2000/svg" width="896" height="1232" viewBox="0 0 896 1232"><path d="M448 56q185 0 316.5 131.5T896 504 764.5 820.5 448 952 131.5 820.5 0 504t131.5-316.5T448 56zm0 840q162 0 277-114.5T840 504q0-162-115-277T448 112q-163 0-277.5 115T56 504q0 163 114.5 277.5T448 896zM320 356l-57-57q-11 9-20 20l57 57q9-11 20-20zm-47 60l-74-31q-8 18-11 27l74 31q3-9 11-27zm189-188h-29v81q3 0 8-.5t7-.5q3 0 7.5.5t6.5.5v-81zm-75 90l-31-74q-9 3-27 11l31 74q20-9 27-11zm321 94q-3-9-11-27l-74 31q8 18 11 27zm-55-93q-9-11-20-20l-57 57q11 9 20 20zm-86-64q-18-8-27-11l-31 74q9 3 27 11zm-49 403q0-46-42-64V392q0-11-8.5-19.5T448 364q-12 0-20 8.5t-8 19.5v202q-42 18-42 64 0 29 20.5 49.5T448 728t49.5-20.5T518 658zm-70-490q140 0 238 98t98 238-98 238-238 98-238-98-98-238 98-238 238-98zm0 644q128 0 218-90t90-218-90-218-218-90-218 90-90 218 90 218 218 90z"/></svg>