<?xml version="1.0" encoding="UTF-8" standalone="no"?><svg   xmlns:svg="http://www.w3.org/2000/svg"   xmlns="http://www.w3.org/2000/svg"   version="1.1"   width="896"   height="1232"   viewBox="0 0 896 1232">  <path     d="M895 174Q900 197 884 216L465 762Q449 784 421 784Q402 784 389 774L192 639Q173 625 169 602.5T178 561L245 463Q258 444 281 439Q283 439 286.5 438.5T292 438Q308 438 323 448L380 488L699 78Q715 56 743 56Q762 56 776 67L873 136Q892 150 895 174zM421 728L840 182L743 112L392 564L292 494L224 593zM616 896V656L672 584V896Q672 919 655.5 935.5T616 952H56Q33 952 16.5 935.5T0 896V336Q0 313 16.5 296.5T56 280H470L426 336H56V896H616zM364 420H140V812H532V766L560 729V840H112V392H385z"     id="icon70" /></svg>