<svg xmlns="http://www.w3.org/2000/svg" width="896" height="1232" viewBox="0 0 896 1232"><path d="M26 526.78q0 24.446 4.445 54.82l111.86 28.15 1.483 4.444q10.37 36.3 28.15 68.895l2.222 3.703-59.264 99.267q33.336 43.708 77.784 77.785l98.527-60.005 3.704 2.222q33.337 19.26 69.637 28.89l3.704 1.483 28.15 111.86Q426.034 952 451.22 952q20.002 0 54.82-3.704l28.15-111.86 4.445-1.483q34.077-9.63 68.895-28.89l3.704-2.223 99.267 60.005q41.486-32.596 77.044-77.785l-59.264-99.267 2.223-3.704q17.78-32.596 28.89-68.896l.742-4.445 112.602-28.15q3.704-29.633 3.704-54.82 0-20.743-3.703-54.08l-112.602-28.15-.74-4.444q-11.854-37.78-28.892-68.895l-2.223-3.703 59.264-99.267q-32.595-42.967-77.043-77.784l-99.266 60.005-3.704-2.222q-33.337-18.52-68.895-28.89l-4.445-.742-28.15-112.602q-29.632-3.704-54.82-3.704-20 0-54.82 3.704l-28.15 112.602-3.703.74q-37.04 10.372-69.636 28.892l-3.703 2.223-98.527-60.004q-43.707 34.817-77.784 77.784l59.264 99.267-2.222 3.704q-18.52 34.82-28.15 68.896l-1.482 4.445-111.86 28.15Q26 508.26 26 526.78zm265.948 0q0-65.19 46.67-111.86 46.67-46.672 112.602-46.672t112.602 46.67q46.67 46.67 46.67 111.862 0 65.93-46.67 112.602-46.67 46.67-112.602 46.67-65.93 0-112.602-46.67-46.67-46.67-46.67-112.602z"/></svg>