<?xml version="1.0" encoding="UTF-8" standalone="no"?><svg   xmlns:svg="http://www.w3.org/2000/svg"   xmlns="http://www.w3.org/2000/svg"   version="1.1"   width="896"   height="1232"   viewBox="0 0 896 1232">  <path     d="M336 812V784H756V812H336zM756 700V728H336V700H756zM756 616V644H336V616H756zM896 353V896Q896 919 879.5 935.5T840 952H252Q229 952 212.5 935.5T196 896V504H252V896H840V364H588V112H308V56H602Q624 56 642 72L880 313Q896 331 896 353zM616 336H840L616 112V336zM252 448H140V308H0V196H140V56H252V196H392V308H252V448z"     id="icon221" /></svg>