<svg xmlns="http://www.w3.org/2000/svg" width="896" height="1232" viewBox="0 0 896 1232"><path d="M308 812v-84h112v84H308zm0-140v-84h112v84H308zm0-140v-84h112v84H308zM168 812v-84h84v84h-84zm0-140v-84h84v84h-84zm0-140v-84h84v84h-84zm308 140v-84h112v84H476zm168-140v-84h84v84h-84zM476 812v-84h112v84H476zM756 56q64 0 102 38t38 102v616q0 64-38 102t-102 38H140q-64 0-102-38T0 812V196q0-64 38-102t102-38h616zm84 756V196q0-84-84-84H140q-84 0-84 84v616q0 84 84 84h616q84 0 84-84zM168 364V196h560v168H168zm476 448V588h84v224h-84zM476 532v-84h112v84H476z"/></svg>