<?xml version="1.0" encoding="UTF-8" standalone="no"?><svg   xmlns:svg="http://www.w3.org/2000/svg"   xmlns="http://www.w3.org/2000/svg"   version="1.1"   width="896"   height="1232"   viewBox="0 0 896 1232">  <path     d="M308 812V728H420V812H308zM308 672V588H420V672H308zM308 532V448H420V532H308zM168 812V728H252V812H168zM168 672V588H252V672H168zM168 532V448H252V532H168zM476 672V588H588V672H476zM644 532V448H728V532H644zM476 812V728H588V812H476zM756 56Q820 56 858 94T896 196V812Q896 876 858 914T756 952H140Q76 952 38 914T0 812V196Q0 132 38 94T140 56H756zM840 812V196Q840 112 756 112H140Q56 112 56 196V812Q56 896 140 896H756Q840 896 840 812zM168 364V196H728V364H168zM644 812V588H728V812H644zM476 532V448H588V532H476z"     id="icon131" /></svg>