<svg xmlns="http://www.w3.org/2000/svg" width="896" height="1232" viewBox="0 0 896 1232"><path d="M490 296q2 3 5.5 10.5T501 318q-17 11-71.5 46.5t-80.5 51-71 37-85 32.5q-2-4-10-22 40-11 84.5-32.5t72-38T419 342t71-46zm401 123q11 25-2 51-15 25-43 28-11 0-23 3l12 25 32 72q13 27-2 51-14 25-43 28-48 5-101 26.5t-86.5 42T541 805q-66 44-104 66.5t-102 48T210 952h-6q-36 0-51-33L63 719 5 589q-12-27 2-51t43-27q16-2 22-4l-43-97q-12-26 2-51t43-28q48-5 101.5-27t85.5-41 94-60q66-44 104-66.5t102-48T686 56h6q36 0 51 33l125 278zM204 896q64-7 129.5-35.5t121-65.5 111-73.5 121-65T816 621q-10-22-29.5-66T757 489q-76 26-208 114-64 42-100.5 64T350 713.5 231 744l-20 3-9-19-79-175q-36 10-67 13 24 55 73.5 165T204 896zm24-179q64-7 129.5-36t121-65.5l111-73 121-65L840 442q-24-55-74-165t-74-165q-64 7-129.5 35.5t-121 65.5-111 73.5-121 65T80 387q98 220 148 330zm426-434h5q47 0 62 33 18 37-26 64l12 27q-5 2-13.5 5.5T682 417l-12-24q-27 10-45 10h-3q-1-5-3-16.5t-3-17.5h3q25 0 44-9 26-10 18-26-5-12-26-12-8 0-12 1-3 0-9 .5t-9 .5q-37 0-49-26-17-39 22-67-2-4-5.5-12.5T587 206q2-1 11.5-4.5T613 196q1 4 4.5 11l5.5 11q15-5 32-5h11q1 5 2.5 15.5T671 245q-1 0-5-.5t-7-.5q-17 0-30 6-22 9-16 24 3 9 31 9h10zM241 592q75-19 171-78l5.5 11 5.5 11q-94 58-171 79-2-4-5.5-11.5T241 592zm-29-64q40-11 85-32.5t71.5-37.5 80-51.5T520 360q2 4 5 11.5t5 11.5q-19 12-71.5 46T379 479.5t-72 38-85 32.5q-1-4-5-11t-5-11z"/></svg>