<svg xmlns="http://www.w3.org/2000/svg" width="896" height="1232" viewBox="0 0 896 1232"><path d="M17.547 621.66v-33.033q0-15.856 16.517-32.373 16.517-16.517 33.034-25.106l16.517-8.59v165.17l-7.268-3.633-15.856-9.25q-15.855-9.25-19.82-14.204-3.963-4.954-15.855-18.168-11.893-13.213-7.268-20.81zm132.796 66.07V507.363l.33-4.625q.33-4.626.992-3.635.66.99 1.32-3.303.662-4.295 1.983-2.643 1.32 1.65 2.973-2.313 1.653-3.964 3.965-.99 2.313 2.972 4.955-.332h132.136l445.958-165.17v561.577L298.996 753.797H273.89l31.052 182.347q1.32 7.928-1.982 11.562-3.303 3.633-7.267 3.964-3.965.33-13.875.33H221.697q-13.214 0-22.794-9.25t-12.222-23.123q-36.337-222.65-36.337-231.898zM811.02 885.93V324.356q0-13.874 9.58-23.454t23.455-9.58q13.214 0 23.124 9.58 9.91 9.58 9.91 23.454v561.576q0 13.214-9.91 23.124-9.91 9.91-23.125 9.91-13.874 0-23.454-9.91t-9.58-23.124z"/></svg>