<svg xmlns="http://www.w3.org/2000/svg" width="896" height="1232" viewBox="0 0 896 1232"><path d="M895 174q5 23-11 42L465 762q-16 22-44 22-19 0-32-10L192 639q-19-14-23-36.5t9-41.5l67-98q13-19 36-24 2 0 5.5-.5t5.5-.5q16 0 31 10l57 40L699 78q16-22 44-22 19 0 33 11l97 69q19 14 22 38zM421 728l419-546-97-70-351 452-100-70-68 99zm195 168V656l56-72v312q0 23-16.5 39.5T616 952H56q-23 0-39.5-16.5T0 896V336q0-23 16.5-39.5T56 280h414l-44 56H56v560h560zM364 420H140v392h392v-46l28-37v111H112V392h273z"/></svg>