<svg xmlns="http://www.w3.org/2000/svg" width="896" height="1232" viewBox="0 0 896 1232"><path d="M210 432q22 0 37 15t15 37-15 37.5-37 15.5-37-15.5-15-37.5 15-37 37-15zm0 128q31 0 50.5 20t19.5 50v70H140v-70q0-30 19.5-50t50.5-20zm210-84h336v28H420v-28zm0 84h336v28H420v-28zm0 84h336v28H420v-28zm448-329q28 16 28 49v532q0 23-16.5 39.5T840 952H56q-23 0-39.5-16.5T0 896V364q0-33 28-49v-91q0-33 28-49v-63q0-23 16.5-39.5T112 56h672q23 0 39.5 16.5T840 112v56q12 7 20 23.5t8 32.5v91zM112 112v84h672v-84H112zM84 224v112h728V224H84zm756 672V364H56v532h224v-84h-56v-28h140v28h-56v84h280v-84h-56v-28h140v28h-56v84h224z"/></svg>