<?xml version="1.0" encoding="UTF-8" standalone="no"?><svg   xmlns:svg="http://www.w3.org/2000/svg"   xmlns="http://www.w3.org/2000/svg"   version="1.1"   width="896"   height="1232"   viewBox="0 0 896 1232">  <path     d="M863 173Q896 188 896 224V896Q896 926 871 943Q856 952 840 952Q830 952 817 947L587 845L329 948Q320 952 308 952Q294 952 282 946L30 817Q0 800 0 767V112Q0 82 25 65Q40 56 56 56Q66 56 79 61L309 163L567 60Q576 56 588 56Q598 56 611 61zM560 123L336 213V885L560 795V123zM56 767L308 896V224L56 112V767zM840 896V224L588 112V784z"     id="icon141" /></svg>