<svg xmlns="http://www.w3.org/2000/svg" width="896" height="1232" viewBox="0 0 896 1232"><path d="M56 56h199q49 0 103 11.5T444.5 90t85.5 32q128 48 182 48 47 0 95-23 9-5 24-7h3q24 0 43 16.5t19 39.5q0 12-4 20-43 134-180 198 92 103 137 113 36 8 43 45 6 37-25 57-7 4-17 9l-3 1q-1 0-3 1-64 29-129 29-37 0-80.5-10T567 640t-75-29q-50-20-77-29.5t-73-20-86-10.5q-27 0-60 5v340q0 23-16.5 39.5T140 952H56q-23 0-39.5-16.5T0 896V112q0-23 16.5-39.5T56 56zm84 840V112H56v784h84zm681-307q1-1 7.5-3t8.5-4q-22-5-42.5-16.5T746 528t-40-37.5-48.5-53.5-42.5-48q7-1 18.5-3.5t43-16 58-32.5 55.5-56.5 44-84.5q-57 30-122 30-59 0-136-28.5t-161-57T255 112q-42 0-87 9v383q46-9 88-9 61 0 128 18.5T499.5 554t108 40.5T715 613q54 0 106-24z"/></svg>