<svg xmlns="http://www.w3.org/2000/svg" width="896" height="1232" viewBox="0 0 896 1232"><path d="M0 914.814V840.44q0-15.618 10.784-26.402t26.402-10.784h74.373q15.618 0 26.402 10.784t10.784 26.403v74.374q0 14.874-10.784 26.03T111.56 952H37.185q-15.618 0-26.402-11.156T0 914.814zm0-223.12v-74.372q0-15.618 10.784-26.402t26.402-10.784h74.373q15.618 0 26.402 10.784t10.784 26.402v74.373q0 14.874-10.784 26.03T111.56 728.88H37.185q-15.618 0-26.402-11.155Q0 706.57 0 691.695zm0-223.118v-74.373q0-15.618 10.784-26.402 10.784-10.783 26.402-10.783h74.373q15.618 0 26.402 10.784 10.784 10.785 10.784 26.403v74.373q0 14.875-10.784 26.03-10.784 11.157-26.403 11.157H37.185q-15.618 0-26.402-11.156T0 468.577zm0-223.118v-74.373q0-15.62 10.784-26.403 10.784-10.784 26.402-10.784h74.373q15.618 0 26.402 10.784t10.784 26.403v74.373q0 14.874-10.784 26.03t-26.403 11.156H37.185q-15.618 0-26.402-11.156T0 245.458zm223.12 669.356V840.44q0-15.618 10.783-26.402 10.784-10.784 26.402-10.784h594.983q15.618 0 26.403 10.784 10.785 10.784 10.785 26.403v74.374q0 14.874-10.784 26.03T855.29 952H260.305q-15.618 0-26.402-11.156t-10.784-26.03zm0-223.12v-74.372q0-15.618 10.783-26.402 10.784-10.784 26.402-10.784h594.983q15.618 0 26.403 10.784 10.785 10.784 10.785 26.402v74.373q0 14.874-10.784 26.03T855.29 728.88H260.305q-15.618 0-26.402-11.155-10.784-11.156-10.784-26.03zm0-223.118v-74.373q0-15.618 10.783-26.402 10.784-10.783 26.402-10.783h594.983q15.618 0 26.403 10.784 10.785 10.785 10.785 26.403v74.373q0 14.875-10.784 26.03-10.784 11.157-26.402 11.157H260.305q-15.618 0-26.402-11.156t-10.784-26.03zm0-223.118v-74.373q0-15.62 10.783-26.403 10.784-10.784 26.402-10.784h594.983q15.618 0 26.403 10.784 10.785 10.784 10.785 26.403v74.373q0 14.874-10.784 26.03t-26.402 11.156H260.305q-15.618 0-26.402-11.156t-10.784-26.03z"/></svg>