<?xml version="1.0" encoding="UTF-8" standalone="no"?>
<svg
   xmlns:dc="http://purl.org/dc/elements/1.1/"
   xmlns:cc="http://creativecommons.org/ns#"
   xmlns:rdf="http://www.w3.org/1999/02/22-rdf-syntax-ns#"
   xmlns:svg="http://www.w3.org/2000/svg"
   xmlns="http://www.w3.org/2000/svg"
   xmlns:sodipodi="http://sodipodi.sourceforge.net/DTD/sodipodi-0.dtd"
   xmlns:inkscape="http://www.inkscape.org/namespaces/inkscape"
   version="1.1"
   width="896"
   height="1232"
   viewBox="0 0 896 1232"
   id="svg2"
   inkscape:version="0.48.3.1 r9886"
   sodipodi:docname="uE016-list2.svg">
  <metadata
     id="metadata9">
    <rdf:RDF>
      <cc:Work
         rdf:about="">
        <dc:format>image/svg+xml</dc:format>
        <dc:type
           rdf:resource="http://purl.org/dc/dcmitype/StillImage" />
      </cc:Work>
    </rdf:RDF>
  </metadata>
  <defs
     id="defs7" />
  <sodipodi:namedview
     pagecolor="#ffffff"
     bordercolor="#666666"
     borderopacity="1"
     objecttolerance="10"
     gridtolerance="10"
     guidetolerance="10"
     inkscape:pageopacity="0"
     inkscape:pageshadow="2"
     inkscape:window-width="640"
     inkscape:window-height="480"
     id="namedview5"
     showgrid="false"
     inkscape:zoom="0.19155844"
     inkscape:cx="448"
     inkscape:cy="739.71277"
     inkscape:window-x="0"
     inkscape:window-y="27"
     inkscape:window-maximized="0"
     inkscape:current-layer="svg2" />
  <path
     d="m 0,914.81356 v -74.37288 q 0,-15.61831 10.784068,-26.40237 10.784068,-10.78407 26.402373,-10.78407 h 74.372879 q 15.61831,0 26.40237,10.78407 10.78407,10.78406 10.78407,26.40237 v 74.37288 q 0,14.87458 -10.78407,26.03051 Q 127.17763,952 111.55932,952 H 37.186441 Q 21.568136,952 10.784068,940.84407 0,929.68814 0,914.81356 z M 0,691.69492 v -74.37289 q 0,-15.6183 10.784068,-26.40237 10.784068,-10.78407 26.402373,-10.78407 h 74.372879 q 15.61831,0 26.40237,10.78407 10.78407,10.78407 10.78407,26.40237 v 74.37289 q 0,14.87457 -10.78407,26.0305 -10.78406,11.15594 -26.40237,11.15594 H 37.186441 q -15.618305,0 -26.402373,-11.15594 Q 0,706.56949 0,691.69492 z M 0,468.57627 v -74.37288 q 0,-15.61831 10.784068,-26.40237 10.784068,-10.78407 26.402373,-10.78407 h 74.372879 q 15.61831,0 26.40237,10.78407 10.78407,10.78406 10.78407,26.40237 v 74.37288 q 0,14.87458 -10.78407,26.03051 -10.78406,11.15593 -26.40237,11.15593 H 37.186441 q -15.618305,0 -26.402373,-11.15593 Q 0,483.45085 0,468.57627 z M 0,245.45763 v -74.37288 q 0,-15.61831 10.784068,-26.40238 10.784068,-10.78406 26.402373,-10.78406 h 74.372879 q 15.61831,0 26.40237,10.78406 10.78407,10.78407 10.78407,26.40238 v 74.37288 q 0,14.87457 -10.78407,26.03051 -10.78406,11.15593 -26.40237,11.15593 H 37.186441 q -15.618305,0 -26.402373,-11.15593 Q 0,260.3322 0,245.45763 z m 223.11864,669.35593 v -74.37288 q 0,-15.61831 10.78407,-26.40237 10.78407,-10.78407 26.40237,-10.78407 h 594.98306 q 15.6183,0 26.40237,10.78407 10.78407,10.78406 10.78407,26.40237 v 74.37288 q 0,14.87458 -10.78407,26.03051 Q 870.90644,952 855.28814,952 H 260.30508 q -15.6183,0 -26.40237,-11.15593 -10.78407,-11.15593 -10.78407,-26.03051 z m 0,-223.11864 v -74.37289 q 0,-15.6183 10.78407,-26.40237 10.78407,-10.78407 26.40237,-10.78407 h 594.98306 q 15.6183,0 26.40237,10.78407 10.78407,10.78407 10.78407,26.40237 v 74.37289 q 0,14.87457 -10.78407,26.0305 -10.78407,11.15594 -26.40237,11.15594 H 260.30508 q -15.6183,0 -26.40237,-11.15594 -10.78407,-11.15593 -10.78407,-26.0305 z m 0,-223.11865 v -74.37288 q 0,-15.61831 10.78407,-26.40237 10.78407,-10.78407 26.40237,-10.78407 h 594.98306 q 15.6183,0 26.40237,10.78407 10.78407,10.78406 10.78407,26.40237 v 74.37288 q 0,14.87458 -10.78407,26.03051 -10.78407,11.15593 -26.40237,11.15593 H 260.30508 q -15.6183,0 -26.40237,-11.15593 -10.78407,-11.15593 -10.78407,-26.03051 z m 0,-223.11864 v -74.37288 q 0,-15.61831 10.78407,-26.40238 10.78407,-10.78406 26.40237,-10.78406 h 594.98306 q 15.6183,0 26.40237,10.78406 10.78407,10.78407 10.78407,26.40238 v 74.37288 q 0,14.87457 -10.78407,26.03051 -10.78407,11.15593 -26.40237,11.15593 H 260.30508 q -15.6183,0 -26.40237,-11.15593 -10.78407,-11.15594 -10.78407,-26.03051 z"
     id="icon81"
     inkscape:connector-curvature="0" />
</svg>
