<svg xmlns="http://www.w3.org/2000/svg" width="896" height="1232" viewBox="0 0 896 1232"><path d="M0 919.067V161.61q0-13.472 9.73-23.202 9.73-9.73 23.203-9.73h832.304q14.22 0 23.577 9.73 9.355 9.73 9.355 23.203v757.457q0 13.473-9.356 23.203-9.356 9.73-23.577 9.73H32.933q-13.473 0-23.203-9.73Q0 932.54 0 919.067zM74.847 755.15L259.72 618.93l223.046 98.05-55.387-116.763L646.68 362.202l176.64 215.56V203.526H74.847V755.15zm80.836-364.506q0-41.915 29.19-71.105 29.19-29.192 71.105-29.192 41.915 0 71.105 29.19 29.19 29.19 29.19 71.106 0 41.915-29.19 71.105-29.19 29.19-71.105 29.19-41.914 0-71.105-29.19-29.19-29.19-29.19-71.106z"/></svg>