<svg xmlns="http://www.w3.org/2000/svg" width="896" height="1232" viewBox="0 0 896 1232"><path d="M838 114q28 28 45 74.5t10 105T843 395L539 700q-16 14-38 16L342 875q-10 11-26 15L69 950q-4 2-13 2-22 0-40-16-22-23-14-53l60-247q3-14 15-26l146-147-25-25q-16-16-16-39t16-40L467 90q16-16 40-16 23 0 39 16l15 15q52-49 126-49 45 0 86 17t65 41zM302 836l173-173-186-186-173 173-60 246zm502-481q30-30 34.5-72.5t-8.5-76-32-52.5q-16-17-47-29.5T687 112q-54 0-90 36l-36 36-54-54-269 269 27 27 241-241 27 27-235 235 207 207z"/></svg>