<svg xmlns="http://www.w3.org/2000/svg" width="896" height="1232" viewBox="0 0 896 1232"><path d="M448 56q210 0 329 90.5T896 397q0 51-37.5 120.5t-86.5 130T657.5 775t-103 101.5T484 939q-14 13-36 13-21 0-37-13-34-30-70-62.5t-102.5-101-115-128-86-129.5T0 397q0-160 118.5-250.5T448 56zm0 840q16-14 42.5-37.5t94-90 119-126.5 94-129.5T840 397q0-97-54-162.5t-140-94T448 112q-174 0-283 71T56 397q0 46 40.5 114t98 132.5 115 123T408 860zm0-658q52 0 89 37t37 89-37 89-89 37-89-37-37-89 37-89 89-37zm0 224q40 0 69-29t29-69-29-69-69-29-69 29-29 69 29 69 69 29z"/></svg>