<svg xmlns="http://www.w3.org/2000/svg" width="896" height="1232" viewBox="0 0 896 1232"><path d="M868 392q11 0 19.5 8.5T896 420q0 12-8.5 20t-19.5 8H756v31q-1 100-59.5 179.5T545 768q105 29 147 100 17 29 1 56-16 28-49 28H252q-33 0-49-28-17-29 1-56 42-72 147-99-94-31-152.5-111.5T140 476v-28H28q-12 0-20-8t-8-20q0-11 8-19.5t20-8.5h112V280q0-23 16.5-39.5T196 224h58q9-74 60.5-121T448 56t133.5 47T642 224h58q23 0 39.5 16.5T756 280v112h112zM308 252v224q0 61 36.5 100.5T448 616t103.5-39.5T588 476V252q0-61-36.5-100.5T448 112t-103.5 39.5T308 252zm392 224V280h-56v196q0 84-53 140t-143 56-143-56-53-140V280h-56v196q0 97 64.5 168T420 726v87q-58 5-103 27.5T252 896h392q-20-33-65-55.5T476 813v-87q95-11 159.5-82T700 476z"/></svg>