<?xml version="1.0" encoding="UTF-8" standalone="no"?><svg   xmlns:svg="http://www.w3.org/2000/svg"   xmlns="http://www.w3.org/2000/svg"   version="1.1"   width="896"   height="1232"   viewBox="0 0 896 1232">  <path     d="M896 698V700V756Q896 779 879.5 795.5T840 812H625Q606 874 557 913T448 952T338.5 913T270 812H56Q33 812 16.5 795.5T0 756V700V698Q2 675 16 661Q37 640 48 628Q140 541 140 505V395Q141 294 200 211.5T351 99Q386 56 448 56Q509 56 544 101Q637 131 696 213T756 395V505Q756 541 848 628Q859 640 880 661Q895 677 896 698zM196 505Q196 532 176 565T138 617.5T84 672H812Q776 637 758 617.5T720 565T700 505V395Q699 309 646 239T508 149Q493 112 448 112Q402 112 387 147Q302 167 249 238T196 395V505zM448 896Q493 896 528 864T574 784H321Q332 832 367 864T448 896zM840 756V700H56V756H840z"     id="icon425" /></svg>