<svg xmlns="http://www.w3.org/2000/svg" width="896" height="1232" viewBox="0 0 896 1232"><path d="M896 284q0 47-36 80 36 33 36 80v120q0 47-36 80 36 33 36 80v120q0 44-32 76t-76 32H668q-47 0-80-36-33 36-80 36H388q-47 0-80-36-33 36-80 36H108q-44 0-76-32T0 844V724q0-47 36-80-36-33-36-80V444q0-47 36-80-36-33-36-80V164q0-44 32-76t76-32h120q47 0 80 36 33-36 80-36h120q47 0 80 36 33-36 80-36h120q44 0 76 32t32 76v120zM280 844V724q0-22-15-37t-37-15H108q-22 0-37 15t-15 37v120q0 22 15 37t37 15h120q22 0 37-15t15-37zm0-280V444q0-22-15-37t-37-15H108q-22 0-37 15t-15 37v120q0 22 15 37t37 15h120q22 0 37-15t15-37zm0-280V164q0-22-15-37t-37-15H108q-22 0-37 15t-15 37v120q0 22 15 37t37 15h120q22 0 37-15t15-37zm280 560V724q0-22-15-37t-37-15H388q-22 0-37 15t-15 37v120q0 22 15 37t37 15h120q22 0 37-15t15-37zm0-280V444q0-22-15-37t-37-15H388q-22 0-37 15t-15 37v120q0 22 15 37t37 15h120q22 0 37-15t15-37zm0-280V164q0-22-15-37t-37-15H388q-22 0-37 15t-15 37v120q0 22 15 37t37 15h120q22 0 37-15t15-37zm280 560V724q0-22-15-37t-37-15H668q-22 0-37 15t-15 37v120q0 22 15 37t37 15h120q22 0 37-15t15-37zm0-280V444q0-22-15-37t-37-15H668q-22 0-37 15t-15 37v120q0 22 15 37t37 15h120q22 0 37-15t15-37zm0-280V164q0-22-15-37t-37-15H668q-22 0-37 15t-15 37v120q0 22 15 37t37 15h120q22 0 37-15t15-37z"/></svg>