<svg xmlns="http://www.w3.org/2000/svg" width="896" height="1232" viewBox="0 0 896 1232"><path d="M896 698v58q0 23-16.5 39.5T840 812H625q-19 62-68 101t-109 39-109.5-39T270 812H56q-23 0-39.5-16.5T0 756v-58q2-23 16-37 21-21 32-33 92-87 92-123V395q1-101 60-183.5T351 99q35-43 97-43 61 0 96 45 93 30 152 112t60 182v110q0 36 92 123 11 12 32 33 15 16 16 37zM196 505q0 27-20 60t-38 52.5T84 672h728q-36-35-54-54.5T720 565t-20-60V395q-1-86-54-156t-138-90q-15-37-60-37-46 0-61 35-85 20-138 91t-53 157v110zm252 391q45 0 80-32t46-80H321q11 48 46 80t81 32zm392-140v-56H56v56h784z"/></svg>