<?xml version="1.0" encoding="UTF-8" standalone="no"?>
<svg
   xmlns:dc="http://purl.org/dc/elements/1.1/"
   xmlns:cc="http://creativecommons.org/ns#"
   xmlns:rdf="http://www.w3.org/1999/02/22-rdf-syntax-ns#"
   xmlns:svg="http://www.w3.org/2000/svg"
   xmlns="http://www.w3.org/2000/svg"
   xmlns:sodipodi="http://sodipodi.sourceforge.net/DTD/sodipodi-0.dtd"
   xmlns:inkscape="http://www.inkscape.org/namespaces/inkscape"
   version="1.1"
   width="896"
   height="1232"
   viewBox="0 0 896 1232"
   id="svg2986"
   inkscape:version="0.48.3.1 r9886"
   sodipodi:docname="uE01F-picture.svg">
  <metadata
     id="metadata2993">
    <rdf:RDF>
      <cc:Work
         rdf:about="">
        <dc:format>image/svg+xml</dc:format>
        <dc:type
           rdf:resource="http://purl.org/dc/dcmitype/StillImage" />
      </cc:Work>
    </rdf:RDF>
  </metadata>
  <defs
     id="defs2991" />
  <sodipodi:namedview
     pagecolor="#ffffff"
     bordercolor="#666666"
     borderopacity="1"
     objecttolerance="10"
     gridtolerance="10"
     guidetolerance="10"
     inkscape:pageopacity="0"
     inkscape:pageshadow="2"
     inkscape:window-width="640"
     inkscape:window-height="480"
     id="namedview2989"
     showgrid="false"
     inkscape:zoom="0.19155844"
     inkscape:cx="448"
     inkscape:cy="616"
     inkscape:window-x="0"
     inkscape:window-y="27"
     inkscape:window-maximized="0"
     inkscape:current-layer="svg2986" />
  <path
     d="M 0,919.06712 V 161.61085 q 0,-13.47254 9.7301695,-23.20271 9.7301695,-9.73017 23.2027115,-9.73017 H 865.23661 q 14.22102,0 23.57695,9.73017 9.35593,9.73017 9.35593,23.20271 v 757.45627 q 0,13.47254 -9.35593,23.20271 Q 879.45763,952 865.23661,952 H 32.932881 Q 19.460339,952 9.7301695,942.26983 0,932.53966 0,919.06712 z M 74.847458,755.15119 259.72068,618.92881 482.7661,716.97898 427.37898,600.21695 646.68203,362.20203 l 176.64,215.56068 V 203.52542 H 74.847458 V 755.15119 z M 155.68271,390.64407 q 0,-41.91458 29.19051,-71.10509 29.19051,-29.19051 71.10509,-29.19051 41.91457,0 71.10508,29.19051 29.19051,29.19051 29.19051,71.10509 0,41.91457 -29.19051,71.10508 -29.19051,29.19051 -71.10508,29.19051 -41.91458,0 -71.10509,-29.19051 -29.19051,-29.19051 -29.19051,-71.10508 z"
     id="icon85"
     inkscape:connector-curvature="0" />
</svg>
