<svg xmlns="http://www.w3.org/2000/svg" width="896" height="1232" viewBox="0 0 896 1232"><path d="M23 438.01q0-144.177 102.366-246.543Q227.73 89.102 371.908 89.102q144.177 0 246.542 102.365Q720.816 293.833 720.816 438.01q0 102.365-56.23 188.15l216.266 216.266q5.046 5.767 5.046 12.976 0 7.208-5.046 12.975l-78.576 78.577Q796.51 952 789.3 952q-7.21 0-12.976-5.046L560.06 730.69q-85.787 56.228-188.152 56.228-144.177 0-246.542-102.366Q23 582.186 23 438.01zm110.295 0q0 98.04 69.926 167.966Q273.148 675.9 371.91 675.9q98.76 0 168.326-69.564Q609.8 536.77 609.8 438.01q0-98.762-69.566-168.327-69.565-69.565-168.326-69.565-98.76 0-168.687 69.926-69.925 69.925-69.925 167.966z"/></svg>