<svg xmlns="http://www.w3.org/2000/svg" width="896" height="1232" viewBox="0 0 896 1232"><path d="M0 878.102v-73.9q0-30.297 21.8-52.097t52.098-21.8H812.88q30.3 0 52.1 21.8t21.8 52.098v73.9q0 30.297-21.8 52.097t-52.1 21.8H73.9Q43.6 952 21.8 930.2T0 878.102zm0-295.594V508.61q0-30.298 21.8-52.098t52.098-21.8H812.88q30.3 0 52.1 21.8t21.8 52.098v73.898q0 30.3-21.8 52.1t-52.1 21.8H73.9q-30.298 0-52.098-21.8T0 582.507zm0-295.593v-73.898q0-30.298 21.8-52.098t52.098-21.8H812.88q30.3 0 52.1 21.8t21.8 52.097v73.898q0 30.3-21.8 52.1t-52.1 21.8H73.9q-30.298 0-52.098-21.8T0 286.914zm443.39 295.593h369.49V508.61H443.39v73.898zm147.796 295.594H812.88v-73.9H591.187v73.9zm73.9-591.187H812.88v-73.898H665.086v73.898z"/></svg>