<svg xmlns="http://www.w3.org/2000/svg" width="896" height="1232" viewBox="0 0 896 1232"><path d="M840 364q23 0 39.5 16.5T896 420v168q0 23-16.5 39.5T840 644h-62l42 41q16 15 18 40 0 23-17 40L711 876q-16 16-40 16t-39-17l-44-44v65q0 23-16.5 39.5T532 952H364q-23 0-39.5-16.5T308 896v-63l-41 43q-15 17-40 17-22 0-40-16L76 767q-16-18-16-40 0-25 17-40l43-43H56q-23 0-39.5-16.5T0 588V420q0-23 16.5-39.5T56 364h64l-44-42q-17-15-17-40 0-22 16-40l110-110q17-17 40-17 25 0 40 17l43 43v-63q0-23 16.5-39.5T364 56h168q23 0 39.5 16.5T588 112v63l42-44q15-15 40-17 23 0 40 17l111 110q16 16 16 40t-17 39l-44 44h64zm0 224V420H725q-5-22-26-59l82-80-111-111-79 82q-40-21-59-25V112H364v115q-19 4-59 26l-80-82-110 111 82 79q-20 34-25 59H56v168h116q4 19 26 59l-82 80 111 110 78-82q37 20 59 25v116h168V780q22-5 59-26l80 82 111-111-82-78q22-43 25-59h115zM448 336q70 0 119 49t49 119-49 119-119 49-119-49-49-119 49-119 119-49zm0 280q46 0 79-33t33-79-33-79-79-33-79 33-33 79 33 79 79 33z"/></svg>