<?xml version="1.0" encoding="UTF-8" standalone="no"?>
<svg
   xmlns:dc="http://purl.org/dc/elements/1.1/"
   xmlns:cc="http://creativecommons.org/ns#"
   xmlns:rdf="http://www.w3.org/1999/02/22-rdf-syntax-ns#"
   xmlns:svg="http://www.w3.org/2000/svg"
   xmlns="http://www.w3.org/2000/svg"
   xmlns:sodipodi="http://sodipodi.sourceforge.net/DTD/sodipodi-0.dtd"
   xmlns:inkscape="http://www.inkscape.org/namespaces/inkscape"
   version="1.1"
   width="896"
   height="1232"
   viewBox="0 0 896 1232"
   id="svg3067"
   inkscape:version="0.48.3.1 r9886"
   sodipodi:docname="uE025-search.svg">
  <metadata
     id="metadata3074">
    <rdf:RDF>
      <cc:Work
         rdf:about="">
        <dc:format>image/svg+xml</dc:format>
        <dc:type
           rdf:resource="http://purl.org/dc/dcmitype/StillImage" />
      </cc:Work>
    </rdf:RDF>
  </metadata>
  <defs
     id="defs3072" />
  <sodipodi:namedview
     pagecolor="#ffffff"
     bordercolor="#666666"
     borderopacity="1"
     objecttolerance="10"
     gridtolerance="10"
     guidetolerance="10"
     inkscape:pageopacity="0"
     inkscape:pageshadow="2"
     inkscape:window-width="640"
     inkscape:window-height="480"
     id="namedview3070"
     showgrid="false"
     inkscape:zoom="0.19155844"
     inkscape:cx="448"
     inkscape:cy="789.19787"
     inkscape:window-x="0"
     inkscape:window-y="27"
     inkscape:window-maximized="0"
     inkscape:current-layer="svg3067" />
  <path
     d="M 23,438.00961 Q 23,293.83279 125.36555,191.46724 227.73109,89.101695 371.90792,89.101695 q 144.17683,0 246.54237,102.365545 102.36555,102.36555 102.36555,246.54237 0,102.36555 -56.22896,188.15076 l 216.26524,216.26524 q 5.04619,5.76708 5.04619,12.97592 0,7.20884 -5.04619,12.97591 l -78.57637,78.57637 Q 796.50867,952 789.29983,952 q -7.20884,0 -12.97591,-5.04619 L 560.05868,730.68857 q -85.78521,56.22896 -188.15076,56.22896 -144.17683,0 -246.54237,-102.36554 Q 23,582.18644 23,438.00961 z m 110.29527,0 q 0,98.04025 69.92576,167.96601 69.92576,69.92576 168.68689,69.92576 98.76113,0 168.32644,-69.56532 69.56532,-69.56532 69.56532,-168.32645 0,-98.76112 -69.56532,-168.32644 -69.56531,-69.56532 -168.32644,-69.56532 -98.76113,0 -168.68689,69.92576 -69.92576,69.92576 -69.92576,167.966 z"
     id="icon29"
     inkscape:connector-curvature="0" />
</svg>
