<?xml version="1.0" encoding="UTF-8" standalone="no"?><svg   xmlns:svg="http://www.w3.org/2000/svg"   xmlns="http://www.w3.org/2000/svg"   version="1.1"   width="896"   height="1232"   viewBox="0 0 896 1232">  <path     d="M884 582Q909 612 888 645Q871 672 840 672Q833 672 829 671L616 628V896Q616 919 599.5 935.5T560 952H336Q313 952 296.5 935.5T280 896V628L67 671Q63 672 56 672Q25 672 8 645Q-13 612 12 582L404 78Q420 56 448 56T492 78zM560 560L840 616L448 112L56 616L336 560V896H560V560z"     id="icon76" /></svg>