<?xml version="1.0" encoding="UTF-8" standalone="no"?><svg   xmlns:svg="http://www.w3.org/2000/svg"   xmlns="http://www.w3.org/2000/svg"   version="1.1"   width="896"   height="1232"   viewBox="0 0 896 1232">  <path     d="M448 56Q633 56 764.5 187.5T896 504T764.5 820.5T448 952T131.5 820.5T0 504T131.5 187.5T448 56zM448 896Q610 896 725 781.5T840 504Q840 342 725 227T448 112Q285 112 170.5 227T56 504Q56 667 170.5 781.5T448 896zM504 308V448H644V560H504V700H392V560H252V448H392V308H504z"     id="icon2" /></svg>