<svg xmlns="http://www.w3.org/2000/svg" width="896" height="1232" viewBox="0 0 896 1232"><path d="M864 212q32 14 32 50v74q0 23-16.5 39.5T840 392h-29l-27 507q-2 23-18 38t-38 15H168q-22 0-38-15t-18-38L85 392H56q-23 0-39.5-16.5T0 336v-74q0-35 31-50l79-38q11-6 24-6h69q16-49 58.5-80.5T357 56h182q53 0 95.5 31.5T692 168h69q12 0 24 6zM728 896l28-532H140l28 532h560zm112-560v-74l-79-38H644v-7q0-43-31-74t-74-31H357q-43 0-74 31t-31 74v7H134l-78 38v74h784zM588 217q0-19-15-34t-34-15H357q-19 0-34 15t-15 34v7h280v-7zm28 231q0-11-8.5-19.5T588 420q-12 0-20 8.5t-8 19.5v364q0 12 8 20t20 8q11 0 19.5-8t8.5-20V448zm-140 0q0-11-8.5-19.5T448 420q-12 0-20 8.5t-8 19.5v364q0 12 8 20t20 8q11 0 19.5-8t8.5-20V448zm-140 0q0-11-8.5-19.5T308 420q-12 0-20 8.5t-8 19.5v364q0 12 8 20t20 8q11 0 19.5-8t8.5-20V448z"/></svg>