<?xml version="1.0" encoding="UTF-8" standalone="no"?><svg   xmlns:svg="http://www.w3.org/2000/svg"   xmlns="http://www.w3.org/2000/svg"   version="1.1"   width="896"   height="1232"   viewBox="0 0 896 1232">  <path     d="M539 168Q558 168 573 183T588 217V308H308V217Q308 198 322.5 183T356 168H539zM532 252V224H364V252H532zM840 252Q863 252 879.5 268.5T896 308V588Q896 621 868 637V896Q868 919 851.5 935.5T812 952H84Q61 952 44.5 935.5T28 896V637Q0 621 0 588V308Q0 285 16.5 268.5T56 252H196V217Q196 150 243 103T356 56H539Q606 56 653 103T700 217V252H840zM812 896V616H756V700H588V616H308V700H140V616H84V896H812zM168 672H280V560H168V672zM616 672H728V560H616V672zM840 588V308H644V217Q644 174 613 143T539 112H356Q313 112 282.5 143T252 217V308H56V588H140V532H308V588H588V532H756V588H840z"     id="icon248" /></svg>