<?xml version="1.0" encoding="UTF-8" standalone="no"?>
<svg
   xmlns:dc="http://purl.org/dc/elements/1.1/"
   xmlns:cc="http://creativecommons.org/ns#"
   xmlns:rdf="http://www.w3.org/1999/02/22-rdf-syntax-ns#"
   xmlns:svg="http://www.w3.org/2000/svg"
   xmlns="http://www.w3.org/2000/svg"
   xmlns:sodipodi="http://sodipodi.sourceforge.net/DTD/sodipodi-0.dtd"
   xmlns:inkscape="http://www.inkscape.org/namespaces/inkscape"
   version="1.1"
   width="896"
   height="1232"
   viewBox="0 0 896 1232"
   id="svg3076"
   inkscape:version="0.48.3.1 r9886"
   sodipodi:docname="uE029-tasks.svg">
  <metadata
     id="metadata3083">
    <rdf:RDF>
      <cc:Work
         rdf:about="">
        <dc:format>image/svg+xml</dc:format>
        <dc:type
           rdf:resource="http://purl.org/dc/dcmitype/StillImage" />
      </cc:Work>
    </rdf:RDF>
  </metadata>
  <defs
     id="defs3081" />
  <sodipodi:namedview
     pagecolor="#ffffff"
     bordercolor="#666666"
     borderopacity="1"
     objecttolerance="10"
     gridtolerance="10"
     guidetolerance="10"
     inkscape:pageopacity="0"
     inkscape:pageshadow="2"
     inkscape:window-width="640"
     inkscape:window-height="480"
     id="namedview3079"
     showgrid="false"
     inkscape:zoom="0.19155844"
     inkscape:cx="615.58958"
     inkscape:cy="1053.1184"
     inkscape:window-x="0"
     inkscape:window-y="27"
     inkscape:window-maximized="0"
     inkscape:current-layer="svg3076" />
  <path
     d="m 0,878.10169 v -73.8983 q 0,-30.29831 21.8,-52.09831 21.8,-21.8 52.098305,-21.8 H 812.88136 q 30.2983,0 52.0983,21.8 21.8,21.8 21.8,52.09831 v 73.8983 q 0,30.29831 -21.8,52.09831 -21.8,21.8 -52.0983,21.8 H 73.898305 Q 43.6,952 21.8,930.2 0,908.4 0,878.10169 z M 0,582.50847 v -73.8983 q 0,-30.29831 21.8,-52.09831 21.8,-21.8 52.098305,-21.8 H 812.88136 q 30.2983,0 52.0983,21.8 21.8,21.8 21.8,52.09831 v 73.8983 q 0,30.29831 -21.8,52.09831 -21.8,21.8 -52.0983,21.8 H 73.898305 Q 43.6,656.40678 21.8,634.60678 0,612.80678 0,582.50847 z M 0,286.91525 v -73.8983 q 0,-30.29831 21.8,-52.09831 21.8,-21.8 52.098305,-21.8 H 812.88136 q 30.2983,0 52.0983,21.8 21.8,21.8 21.8,52.09831 v 73.8983 q 0,30.29831 -21.8,52.09831 -21.8,21.8 -52.0983,21.8 H 73.898305 Q 43.6,360.81356 21.8,339.01356 0,317.21356 0,286.91525 z m 443.38983,295.59322 h 369.49153 v -73.8983 H 443.38983 v 73.8983 z m 147.79661,295.59322 h 221.69492 v -73.8983 H 591.18644 v 73.8983 z m 73.89831,-591.18644 h 147.79661 v -73.8983 H 665.08475 v 73.8983 z"
     id="icon158"
     inkscape:connector-curvature="0" />
</svg>
