<svg xmlns="http://www.w3.org/2000/svg" width="896" height="1232" viewBox="0 0 896 1232"><path d="M840 56q23 0 39.5 16.5T896 112v196q0 23-16.5 39.5T840 364H644q-23 0-39.5-16.5T588 308V112q0-23 16.5-39.5T644 56h196zm0 252V112H644v196h196zM700 420q23 0 39.5 16.5T756 476v420q0 23-16.5 39.5T700 952H56q-23 0-39.5-16.5T0 896V252q0-23 16.5-39.5T56 196h420q23 0 39.5 16.5T532 252v168h168zM252 896V700H56v196h196zm0-224V476H56v196h196zm0-224V252H56v196h196zm224 448V700H280v196h196zm0-224V476H280v196h196zm0-224V252H280v196h196zm224 448V700H504v196h196zm0-224V476H504v196h196z"/></svg>