<svg xmlns="http://www.w3.org/2000/svg" width="896" height="1232" viewBox="0 0 896 1232"><path d="M392 672V560h112v112H392zM112 448V336h112v112H112zm560 112V448h112v112H672zm168-224q23 0 39.5 16.5T896 392v224q0 23-16.5 39.5T840 672h-56v280H672V672h-56v56q0 23-16.5 39.5T560 784h-56v168H392V784h-56q-23 0-39.5-16.5T280 728V560h-56v392H112V560H56q-23 0-39.5-16.5T0 504V280q0-23 16.5-39.5T56 224h56V56h112v168h56q23 0 39.5 16.5T336 280v168h56V56h112v392h56v-56q0-23 16.5-39.5T616 336h56V56h112v280h56zM56 504h224V280H56v224zm280 224h224V504H336v224zm280-112h224V392H616v224z"/></svg>