<svg xmlns="http://www.w3.org/2000/svg" width="896" height="1232" viewBox="0 0 896 1232"><path d="M462 560q0-46-42-64V364q0-11-8.5-19.5T392 336q-12 0-20 8.5t-8 19.5v132q-25 11-36 36H224q-12 0-20 8.5t-8 19.5q0 12 8 20t20 8h104q18 42 64 42 29 0 49.5-20.5T462 560zm418-309q16 16 16 39 0 22-16 40l-60 59q-17 17-39 17-18 0-35-12 38 79 38 166 0 162-115 277T392 952 115 837 0 560t115-277 277-115q87 0 166 38-13-16-11.5-37.5T563 132l59-60q18-16 40-16 21 0 39 16zm-99 99l59-60-178-178-60 59 70 70-63 63q-94-80-217-80-140 0-238 98T56 560t98 238 238 98 238-98 98-238q0-123-80-217l63-63zm-389-77q118 0 202.5 84.5T679 560q0 119-84 203t-203 84-203-84-84-203 84-203 203-84zm0 546q107 0 183-76t76-183-76-183-183-76-183 76-76 183 76 183 183 76z"/></svg>