<?xml version="1.0" encoding="UTF-8" standalone="no"?><svg   xmlns:svg="http://www.w3.org/2000/svg"   xmlns="http://www.w3.org/2000/svg"   version="1.1"   width="896"   height="1232"   viewBox="0 0 896 1232">  <path     d="M896 891Q898 916 881 934Q865 952 840 952H56Q31 952 15 934Q-2 916 0 891Q12 752 110 646.5T350 511Q287 483 248.5 424T210 294Q210 196 280 126T448 56T616 126T686 294Q686 365 647.5 424T546 511Q688 541 786 646.5T896 891zM266 294Q266 370 319 423T448 476T577 423T630 294Q630 219 577 165.5T448 112T319 165.5T266 294zM56 896H840Q828 753 715.5 655T448 557T180.5 655T56 896z"     id="icon367" /></svg>