<svg xmlns="http://www.w3.org/2000/svg" width="896" height="1132" viewBox="0 0 896 1132"><path d="M138.723 326.637q0-85.943 41.932-160.45 41.932-74.507 114.36-119.21Q367.443 2.27 452 2.27q85.25 0 157.332 43.666 72.08 43.665 114.013 117.48 41.932 73.813 41.932 159.063 0 85.25-50.596 188.52-50.594 79.012-115.398 164.262t-104.31 130.994L455.465 852q-6.93-6.238-18.713-18.02-11.783-11.783-46.09-48.863-34.308-37.08-66.537-75.547-32.23-38.467-72.082-93.914t-69.655-107.43q-43.665-96.338-43.665-181.59zm134.46-18.713q0 74.16 52.328 126.49 52.33 52.327 125.797 52.327 74.16 0 126.49-52.327 52.327-52.328 52.327-126.49 0-74.16-52.328-126.14-52.328-51.983-126.49-51.983-74.16 0-126.142 52.328-51.98 52.328-51.98 125.796z"/></svg>