<svg xmlns="http://www.w3.org/2000/svg" width="896" height="1232" viewBox="0 0 896 1232"><path d="M140 476h56v56h-56v-56zm0 140h56v56h-56v-56zm0 140h56v56h-56v-56zm140-280h56v56h-56v-56zm0 140h56v56h-56v-56zm0 140h56v56h-56v-56zm140-280h56v56h-56v-56zm0 140h56v56h-56v-56zm0 140h56v56h-56v-56zm140-280h56v56h-56v-56zm-28 112h112v112H532V588zm84 84v-56h-56v56h56zm84-196h56v56h-56v-56zm0 140h56v56h-56v-56zM448 153l89 99H358zm392 43q23 0 39.5 16.5T896 252v644q0 23-16.5 39.5T840 952H56q-23 0-39.5-16.5T0 896V252q0-23 16.5-39.5T56 196h237L407 74q16-18 41-18t41 18l114 122h237zm0 700V392H56v504h784zm0-532V252H579L448 112 317 252H56v112h784z"/></svg>