<?xml version="1.0" encoding="UTF-8" standalone="no"?><svg   xmlns:svg="http://www.w3.org/2000/svg"   xmlns="http://www.w3.org/2000/svg"   version="1.1"   width="896"   height="1232"   viewBox="0 0 896 1232">  <path     d="M448 56Q633 56 764.5 187.5T896 504T764.5 820.5T448 952T131.5 820.5T0 504T131.5 187.5T448 56zM448 896Q610 896 725 781.5T840 504Q840 342 725 227T448 112Q285 112 170.5 227T56 504Q56 667 170.5 781.5T448 896zM518 504Q518 458 476 440V252Q476 241 467.5 232.5T448 224Q436 224 428 232.5T420 252V440Q395 451 384 476H224Q212 476 204 484.5T196 504Q196 516 204 524T224 532H384Q402 574 448 574Q477 574 497.5 553.5T518 504zM448 168Q588 168 686 266T784 504T686 742T448 840T210 742T112 504T210 266T448 168zM448 812Q576 812 666 722T756 504T666 286T448 196T230 286T140 504T230 722T448 812z"     id="icon24" /></svg>