<svg xmlns="http://www.w3.org/2000/svg" width="896" height="1232" viewBox="0 0 896 1232"><path d="M4 504.78q0-121.56 60.03-224.36 60.03-102.802 162.83-162.83 102.8-60.03 224.36-60.03 121.56 0 224.36 60.03 102.802 60.028 162.83 162.83 60.03 102.8 60.03 224.36 0 121.56-60.03 224.36-60.028 102.8-162.83 162.83Q572.78 952 451.22 952q-121.56 0-224.36-60.03-102.8-60.03-162.83-162.83Q4 626.34 4 504.78zm136.567 0q0 128.313 91.17 219.483 91.17 91.17 219.483 91.17 128.314 0 219.483-91.17 91.17-91.17 91.17-219.483 0-128.314-91.17-219.483-91.17-91.17-219.483-91.17t-219.483 91.17q-91.17 91.17-91.17 219.483zm127.563 101.3l101.3-101.3-101.3-101.3 81.79-81.79 101.3 101.3 101.3-101.3 81.79 81.79-101.3 101.3 101.3 101.3-81.79 81.79-101.3-101.3-101.3 101.3z"/></svg>