<svg xmlns="http://www.w3.org/2000/svg" width="896" height="1232" viewBox="0 0 896 1232"><path d="M140 644v-28h616v28H140zm0 84v-28h616v28H140zm0 84v-28h616v28H140zm0-336v-28h616v28H140zm0 84v-28h616v28H140zm700-420q23 0 39.5 16.5T896 196v700q0 23-16.5 39.5T840 952H56q-23 0-39.5-16.5T0 896V196q0-23 16.5-39.5T56 140h112V84q0-11 8-19.5t20-8.5q11 0 19.5 8.5T224 84v56h112V84q0-11 8-19.5t20-8.5q11 0 19.5 8.5T392 84v56h112V84q0-11 8-19.5t20-8.5q11 0 19.5 8.5T560 84v56h112V84q0-11 8-19.5t20-8.5q11 0 19.5 8.5T728 84v56h112zm0 756V196H728v84q0 12-8.5 20t-19.5 8q-12 0-20-8t-8-20v-84H560v84q0 12-8.5 20t-19.5 8q-12 0-20-8t-8-20v-84H392v84q0 12-8.5 20t-19.5 8q-12 0-20-8t-8-20v-84H224v84q0 12-8.5 20t-19.5 8q-12 0-20-8t-8-20v-84H56v700h784z"/></svg>