<?xml version="1.0" encoding="UTF-8" standalone="no"?><svg   xmlns:svg="http://www.w3.org/2000/svg"   xmlns="http://www.w3.org/2000/svg"   version="1.1"   width="896"   height="1232"   viewBox="0 0 896 1232">  <path     d="M773 471Q829 498 862.5 549.5T896 663V896Q896 919 879.5 935.5T840 952H56Q33 952 16.5 935.5T0 896V671Q0 592 46.5 528T167 435Q120 408 92 361T64 259Q64 175 123.5 115.5T267 56T410.5 115.5T470 259Q470 315 442 362T367 436Q447 467 491 536Q524 494 571 471Q529 445 504.5 402T480 308Q480 229 536 173T672 117T808 173T864 308Q864 359 839.5 402T773 471zM120 259Q120 320 163 363T267 406T371 363T414 259T371 155T267 112T163 155T120 259zM476 896V671Q476 589 414.5 531T266 473T117.5 531T56 671V896H476zM536 308Q536 364 576 404T672 444T768 404T808 308T768 212.5T672 173T576 212.5T536 308zM840 896V663Q840 597 791 550.5T672 504T553 550.5T504 663V896H840z"     id="icon368" /></svg>