<svg xmlns="http://www.w3.org/2000/svg" width="896" height="1232" viewBox="0 0 896 1232"><path d="M448 56q185 0 316.5 131.5T896 504 764.5 820.5 448 952 131.5 820.5 0 504t131.5-316.5T448 56zm0 840q162 0 277-114.5T840 504q0-162-115-277T448 112q-163 0-277.5 115T56 504q0 163 114.5 277.5T448 896zm70-392q0-46-42-64V252q0-11-8.5-19.5T448 224q-12 0-20 8.5t-8 19.5v188q-25 11-36 36H224q-12 0-20 8.5t-8 19.5q0 12 8 20t20 8h160q18 42 64 42 29 0 49.5-20.5T518 504zm-70-336q140 0 238 98t98 238-98 238-238 98-238-98-98-238 98-238 238-98zm0 644q128 0 218-90t90-218-90-218-218-90-218 90-90 218 90 218 218 90z"/></svg>