<?xml version="1.0" encoding="UTF-8" standalone="no"?><svg   xmlns:svg="http://www.w3.org/2000/svg"   xmlns="http://www.w3.org/2000/svg"   version="1.1"   width="896"   height="1232"   viewBox="0 0 896 1232">  <path     d="M644 280L476 432V560L672 728V756H224V728L420 560V432L252 280H644zM677 439Q624 486 613 504Q627 526 677 569Q720 608 752 664T784 768V784H840Q863 784 879.5 800.5T896 840V896Q896 919 879.5 935.5T840 952H56Q33 952 16.5 935.5T0 896V840Q0 817 16.5 800.5T56 784H112V768Q112 719 143 663.5T220 569Q268 528 281 504Q268 479 219 439Q174 401 143 345T112 240V224H56Q33 224 16.5 207.5T0 168V112Q0 89 16.5 72.5T56 56H840Q863 56 879.5 72.5T896 112V168Q896 191 879.5 207.5T840 224H784V240Q784 289 754.5 342T677 439zM56 168H840V112H56V168zM840 840H56V896H840V840zM728 240V196H168V240Q168 277 192.5 322T253 394T314 453.5T339 504T314 554.5T254 614Q218 641 193 686T168 768V812H728V768Q728 731 703.5 686T643 614T581 554.5T555 504T581 453.5T643 394T703.5 322T728 240z"     id="icon25" /></svg>