<svg xmlns="http://www.w3.org/2000/svg" width="896" height="1232" viewBox="0 0 896 1232"><path d="M182 420q-29 0-49.5-20.5T112 350t20.5-49.5T182 280t49.5 20.5T252 350t-20.5 49.5T182 420zm336-252q52 0 89 37t37 89-37 89-89 37-89-37-37-89 37-89 89-37zm355 319q23 16 23 45v308q0 29-23 45-16 11-33 11-9 0-18-3l-123-41q-5 42-36.5 71T588 952H112q-46 0-79-33T0 840V560q0-55 45-90Q0 419 0 350q0-75 53.5-128.5T182 168q64 0 114 40 26-68 86.5-110T518 56q98 0 168 70t70 168q0 114-90 186 18 18 27 42l129-43q9-3 18-3 17 0 33 11zM182 224q-52 0-89 37t-37 89 37 89 89 37 89-37 37-89-37-89-89-37zm462 616V560q0-23-16.5-39.5T588 504H112q-23 0-39.5 16.5T56 560v280q0 23 16.5 39.5T112 896h476q23 0 39.5-16.5T644 840zM518 476q75 0 128.5-53T700 294q0-75-53.5-128.5T518 112q-76 0-129 53.5T336 294q0 76 53 129t129 53zm322 364V532l-168 56v196z"/></svg>