<?xml version="1.0" encoding="UTF-8" standalone="no"?><svg   xmlns:svg="http://www.w3.org/2000/svg"   xmlns="http://www.w3.org/2000/svg"   version="1.1"   width="896"   height="1232"   viewBox="0 0 896 1232">  <path     d="M840 336Q863 336 879.5 352.5T896 392V896Q896 919 879.5 935.5T840 952H56Q33 952 16.5 935.5T0 896V392Q0 369 16.5 352.5T56 336H224V224Q224 201 240.5 184.5T280 168H364V112Q364 77 395 62Q407 56 420 56Q438 56 454 67L678 235Q700 252 700 280T678 325L663 336H840zM440 711L336 636L76 896H820L560 636L456 711Q453 714 448 714T440 711zM420 336V448L644 280L420 112V224H280V336H420zM364 392H56V395L448 683L840 395V392H588L454 493Q438 504 420 504Q407 504 395 498Q364 483 364 448V392zM840 430L582 619L840 876V430zM313 619L56 430V876z"     id="icon110" /></svg>