<svg xmlns="http://www.w3.org/2000/svg" width="896" height="1232" viewBox="0 0 896 1232"><path d="M840 336q23 0 39.5 16.5T896 392v504q0 23-16.5 39.5T840 952H56q-23 0-39.5-16.5T0 896V392q0-23 16.5-39.5T56 336h168V224q0-23 16.5-39.5T280 168h84v-56q0-35 31-50 12-6 25-6 18 0 34 11l224 168q22 17 22 45t-22 45l-15 11h177zM440 711l-104-75L76 896h744L560 636l-104 75q-3 3-8 3t-8-3zm-20-375v112l224-168-224-168v112H280v112h140zm-56 56H56v3l392 288 392-288v-3H588L454 493q-16 11-34 11-13 0-25-6-31-15-31-50v-56zm476 38L582 619l258 257V430zM313 619L56 430v446z"/></svg>