<svg xmlns="http://www.w3.org/2000/svg" width="896" height="1232" viewBox="0 0 896 1232"><path d="M140 700v-28h336v28H140zm0 112v-28h336v28H140zm723-247q33 33 33 79t-33 79-79 33-79-33l-89-89v262q0 23-16.5 39.5T560 952H56q-23 0-39.5-16.5T0 896V336q0-23 16.5-39.5T56 280h148q24-97 104-160.5T490 56q122 0 208 86t86 208q0 58-23 113zM560 896V621q-34 9-70 9-80 0-147-42H140v-28h165q-41-36-65-84H140v-28h88q-18-51-18-98 0-9 1-14H56v560h504zm264-212q16-16 16-40t-16-40L693 474q35-57 35-124 0-98-70-168t-168-70-168 70-70 168 70 168 168 70q67 0 124-35l130 131q16 16 40 16t40-16zM490 168q75 0 128.5 53.5T672 350q0 76-53.5 129T490 532q-76 0-129-53t-53-129q0-75 53-128.5T490 168zm0 336q64 0 109-45t45-109-45-109-109-45-109 45-45 109 45 109 109 45z"/></svg>