<?xml version="1.0" encoding="UTF-8" standalone="no"?><svg   xmlns:svg="http://www.w3.org/2000/svg"   xmlns="http://www.w3.org/2000/svg"   version="1.1"   width="896"   height="1232"   viewBox="0 0 896 1232">  <path     d="M448 56Q633 56 764.5 187.5T896 504T764.5 820.5T448 952T131.5 820.5T0 504T131.5 187.5T448 56zM476 113V460L789 311Q742 226 659 173T476 113zM447 895Q593 895 703 799L420 515V111Q267 122 161.5 234.5T56 502Q56 665 170.5 780T447 895zM744 760Q840 648 840 503Q840 432 815 365L496 512z"     id="icon132" /></svg>