<svg xmlns="http://www.w3.org/2000/svg" width="896" height="1232" viewBox="0 0 896 1232"><path d="M583 56q132 0 222.5 91.5T896 373v68q0 130-93 222.5T579 756h-37L377 934q-17 18-41 18-12 0-21-4-16-6-25.5-20.5T280 896V754Q161 740 80.5 650.5T0 441v-68q0-131 93-224t224-93h266zm257 385v-68q0-109-74.5-185T583 112H317q-108 0-184.5 76.5T56 373v68q0 108 76.5 183.5T317 700h19v196l182-196h61q108 0 184.5-75.5T840 441zm-98-35q0-14-14-14H168q-14 0-14 14t14 14h560q14 0 14-14zm-84-112q0-14-14-14H252q-14 0-14 14t14 14h392q14 0 14-14zm0 224q0-14-14-14H252q-14 0-14 14t14 14h392q14 0 14-14z"/></svg>