<?xml version="1.0" encoding="UTF-8" standalone="no"?><svg   xmlns:svg="http://www.w3.org/2000/svg"   xmlns="http://www.w3.org/2000/svg"   version="1.1"   width="896"   height="1232"   viewBox="0 0 896 1232">  <path     d="M884 815Q896 830 896 850V896Q896 919 879.5 935.5T840 952H56Q33 952 16.5 935.5T0 896V850Q0 830 12 815L84 725V420Q61 420 44.5 403.5T28 364V326Q28 294 56 278L420 64Q433 56 448 56T476 64L840 278Q868 294 868 326V364Q868 387 851.5 403.5T812 420V725zM84 326V364H812V326L448 112zM756 392H644V728H756V392zM588 392H476V728H588V392zM420 392H308V728H420V392zM252 392H140V728H252V392zM840 896V847L765 756H131L56 847V896H840z"     id="icon351" /></svg>