<svg xmlns="http://www.w3.org/2000/svg" width="896" height="1232" viewBox="0 0 896 1232"><path d="M89.054 640.013l130.96 132.052 130.963-132.052 89.038 90.155-211.838 213.976-8.162 7.856-.37-.374h-.372L.015 730.168zM220 158l-.344.375h-.375L0 379.845 89.063 470 220 337.937 350.97 470 440 379.844l-211.813-213.97L220 158zm-.156 19.5c67.09 67.223 133.553 134.915 200.47 202.344l-69.502 70.25c-43.616-44.01-87.26-87.99-130.812-132.063-43.54 44.064-87.177 88.043-130.813 132.095l-69.5-70.28L219.845 177.5z"/></svg>