<?xml version="1.0" encoding="UTF-8" standalone="no"?>
<svg
   xmlns:dc="http://purl.org/dc/elements/1.1/"
   xmlns:cc="http://creativecommons.org/ns#"
   xmlns:rdf="http://www.w3.org/1999/02/22-rdf-syntax-ns#"
   xmlns:svg="http://www.w3.org/2000/svg"
   xmlns="http://www.w3.org/2000/svg"
   xmlns:sodipodi="http://sodipodi.sourceforge.net/DTD/sodipodi-0.dtd"
   xmlns:inkscape="http://www.inkscape.org/namespaces/inkscape"
   version="1.1"
   width="896"
   height="1232"
   viewBox="0 0 896 1232"
   id="svg2995"
   inkscape:version="0.48.5 r10040"
   sodipodi:docname="uEA01-sort.svg">
  <metadata
     id="metadata3002">
    <rdf:RDF>
      <cc:Work
         rdf:about="">
        <dc:format>image/svg+xml</dc:format>
        <dc:type
           rdf:resource="http://purl.org/dc/dcmitype/StillImage" />
      </cc:Work>
    </rdf:RDF>
  </metadata>
  <defs
     id="defs3000" />
  <sodipodi:namedview
     pagecolor="#ffffff"
     bordercolor="#666666"
     borderopacity="1"
     objecttolerance="10"
     gridtolerance="10"
     guidetolerance="10"
     inkscape:pageopacity="0"
     inkscape:pageshadow="2"
     inkscape:window-width="980"
     inkscape:window-height="678"
     id="namedview2998"
     showgrid="false"
     inkscape:zoom="0.19155844"
     inkscape:cx="448"
     inkscape:cy="838.68295"
     inkscape:window-x="243"
     inkscape:window-y="128"
     inkscape:window-maximized="0"
     inkscape:current-layer="svg2995" />
  <path
     d="M 89.03125,640 0,730.15625 219.25,951.625 l 0.375,0 L 220,952 228.15625,944.15625 440,730.15625 350.96875,640 220,772.0625 89.03125,640 z m 0.15625,19.875 c 43.63503,44.05178 87.2723,88.03119 130.8125,132.09375 43.5524,-44.07201 87.1962,-88.05371 130.8125,-132.0625 23.1667,23.41667 46.3333,46.83333 69.5,70.25 C 353.3973,797.58476 286.93425,865.27734 219.84375,932.5 153.12504,865.05208 86.40625,797.60417 19.6875,730.15625 l 69.5,-70.28125 z"
     id="path3000-1"
     inkscape:connector-curvature="0" />
  <path
     d="m 220,158 -0.375,0.375 -0.375,0 L 0,379.84375 89.03125,470 220,337.9375 350.96875,470 440,379.84375 228.15625,165.875 220,158 z m -0.15625,19.5 c 67.09044,67.22266 133.55352,134.91524 200.46875,202.34375 l -69.5,70.25 C 307.1962,406.08496 263.55239,362.10326 220,318.03125 176.45985,362.09381 132.82253,406.07322 89.1875,450.125 L 19.6875,379.84375 219.84375,177.5 z"
     id="path3000"
     inkscape:connector-curvature="0" />
</svg>
