<svg xmlns="http://www.w3.org/2000/svg" width="896" height="1232" viewBox="0 0 896 1232"><path d="M89.03 640L0 730.156l219.25 221.47h.375L220 952l8.156-7.844 211.844-214L350.97 640 220 772.063 89.03 640zm.157 19.875C132.823 703.927 176.46 747.905 220 791.97c43.552-44.073 87.196-88.055 130.813-132.064l69.5 70.25c-66.916 67.43-133.38 135.12-200.47 202.344L19.69 730.156l69.5-70.28zM220 158l-.375.375h-.375L0 379.845 89.03 470 220 337.937 350.97 470 440 379.844l-211.844-213.97L220 158zm-.156 19.5c67.09 67.223 133.553 134.915 200.47 202.344l-69.502 70.25c-43.616-44.01-87.26-87.99-130.812-132.063-43.54 44.064-87.177 88.043-130.813 132.095l-69.5-70.28L219.845 177.5z"/></svg>