<svg xmlns="http://www.w3.org/2000/svg" width="896" height="1232" viewBox="0 0 896 1232"><path d="M873 669q23 16 23 45 0 28-23 46L621 942q-17 10-33 10-14 0-26-6-30-17-30-50v-56H112q-23 0-39.5-16.5T56 784V644q0-23 16.5-39.5T112 588h420v-56q0-33 30-50 12-6 26-6 17 0 33 11zM588 896l252-182-252-182v112H112v140h476v112zM308 532q-16 0-33-10L23 339Q0 323 0 294q0-28 23-46L275 67q16-11 33-11 13 0 25 6 31 16 31 50v56h420q23 0 39.5 16.5T840 224v140q0 23-16.5 39.5T784 420H364v56q0 34-31 50-12 6-25 6zm0-420L56 294l252 182V364h476V224H308V112z"/></svg>