<?xml version="1.0" encoding="UTF-8" standalone="no"?><svg   xmlns:svg="http://www.w3.org/2000/svg"   xmlns="http://www.w3.org/2000/svg"   version="1.1"   width="896"   height="1232"   viewBox="0 0 896 1232">  <path     d="M840 364Q863 364 879.5 380.5T896 420V896Q896 919 879.5 935.5T840 952H56Q33 952 16.5 935.5T0 896V420Q0 397 16.5 380.5T56 364H168V338Q168 221 250 138.5T448 56T646 138.5T728 338V364H840zM448 112Q354 112 289 178T224 338V392H308V338Q308 280 349 239.5T448 199T547 239.5T588 338V392H672V338Q672 244 607 178T448 112zM364 364H532V338Q532 304 507.5 279.5T448 255T388.5 279.5T364 338V364zM840 420H56V896H840V420zM409 676Q369 653 369 605Q369 572 392 548T448 524T504.5 548T528 605Q528 653 488 676L517 812H380z"     id="icon423" /></svg>