<svg xmlns="http://www.w3.org/2000/svg" width="896" height="1232" viewBox="0 0 896 1232"><path d="M840 364q23 0 39.5 16.5T896 420v476q0 23-16.5 39.5T840 952H56q-23 0-39.5-16.5T0 896V420q0-23 16.5-39.5T56 364h112v-26q0-117 82-199.5T448 56t198 82.5T728 338v26h112zM448 112q-94 0-159 66t-65 160v54h84v-54q0-58 41-98.5t99-40.5 99 40.5 41 98.5v54h84v-54q0-94-65-160t-159-66zm-84 252h168v-26q0-34-24.5-58.5T448 255t-59.5 24.5T364 338v26zm476 56H56v476h784V420zM409 676q-40-23-40-71 0-33 23-57t56-24 56.5 24 23.5 57q0 48-40 71l29 136H380z"/></svg>