<svg xmlns="http://www.w3.org/2000/svg" width="896" height="1232" viewBox="0 0 896 1232"><path d="M267 490q47 0 47-30 0-25-51-42-89-30-89-88 0-72 78-85v-49h56v45q33 1 69 16l-16 55q-34-17-69-17-42 0-42 27 0 12 13 20.5t45 20.5q44 15 63.5 36.5T391 453q0 34-21.5 58T308 542v46h-56v-42q-48-3-80-21l15-56q38 21 80 21zm209 70v-28h280v28H476zm0 84v-28h280v28H476zm0 84v-28h280v28H476zm-336 0v-28h280v28H140zm336 84v-28h280v28H476zm-336 0v-28h280v28H140zm740-528q16 16 16 41v571q0 23-16.5 39.5T840 952H56q-23 0-39.5-16.5T0 896V112q0-23 16.5-39.5T56 56h573q22 0 40 16zm-40 612V336H616V112H56v784h784zM644 308h196L644 112v196z"/></svg>